<?xml version="1.0" encoding="utf-8"?>
<!-- Generator: Adobe Illustrator 26.0.0, SVG Export Plug-In . SVG Version: 6.00 Build 0)  -->
<svg version="1.1" id="Capa_1" xmlns="http://www.w3.org/2000/svg" xmlns:xlink="http://www.w3.org/1999/xlink" x="0px" y="0px"
	 viewBox="0 0 214.51 52.43" style="enable-background:new 0 0 214.51 52.43;" xml:space="preserve">
<style type="text/css">
	.st0{opacity:0.7;}
	.st1{opacity:0.5;clip-path:url(#SVGID_00000069384805869929647290000007319712709652891829_);fill:#B8BABF;}
	.st2{clip-path:url(#SVGID_00000069384805869929647290000007319712709652891829_);}
	.st3{fill:#B8BABF;}
	.st4{opacity:0.5;fill:#B8BABF;}
	.st5{clip-path:url(#XMLID_00000083088104677719783900000017466649882644836264_);fill:#A6A7AE;}
	.st6{fill:#F2F2F2;}
	.st7{clip-path:url(#XMLID_00000137111364218520370660000001166592071247600057_);fill:#A6A7AE;}
	.st8{fill:#EFF5FE;}
	.st9{opacity:0.5;}
	.st10{fill:#FFFFFF;}
	.st11{fill:#02315D;}
	.st12{fill:#4F93FE;}
	.st13{fill:#F3EB6C;}
	.st14{fill:#3C4D5D;}
	.st15{fill:#D5E5FE;}
	.st16{fill:#18B51A;}
	.st17{fill:#8C9093;}
	.st18{fill:#022A4F;}
	.st19{fill:none;stroke:#4F93FE;stroke-miterlimit:10;}
	.st20{fill:#FFFFFF;stroke:#E6E6E6;stroke-miterlimit:10;}
	.st21{fill:#373737;}
	.st22{fill:#333333;}
	.st23{fill:#868686;}
	.st24{fill:#1C99F5;}
	.st25{fill:#1A8FE6;}
	.st26{fill:url(#SVGID_00000159432153224967391060000017106874920181768363_);}
	.st27{fill:url(#SVGID_00000167380917973394941750000005254433311451874987_);}
	.st28{fill:url(#SVGID_00000033341565869403830810000016524979224332925115_);}
	.st29{fill:url(#SVGID_00000029013414376272223970000003639285243938890910_);}
	.st30{fill:url(#SVGID_00000072999991620198011400000009603239411956877234_);}
	.st31{fill:url(#SVGID_00000178192032250995089040000003151649479202634889_);}
	.st32{fill:url(#SVGID_00000150094959430033694650000016233808432969906867_);}
	.st33{fill:url(#SVGID_00000155104596290767921280000010728729982606521513_);}
	.st34{fill:url(#SVGID_00000029739840344179087930000017010850972245747097_);}
	.st35{fill:url(#SVGID_00000020391364465827937210000012103656270615994028_);}
	.st36{fill:url(#SVGID_00000053525728720613585430000002169223361104878464_);}
	.st37{fill:url(#SVGID_00000016788115980172536110000007531518817997097117_);}
	.st38{fill:url(#SVGID_00000030445940121601659810000017225233143911424174_);}
	.st39{fill:url(#SVGID_00000084511824260594218860000011081049120042420647_);}
	.st40{fill:url(#SVGID_00000041994218982671757630000008279036927230903943_);}
	.st41{fill:url(#SVGID_00000106128241368685674820000010996639462592671393_);}
	.st42{fill:url(#SVGID_00000145741957321149526590000004779585042342432670_);}
	.st43{fill:url(#SVGID_00000080903865181922387640000009521372455961430715_);}
	.st44{fill:url(#SVGID_00000039839233660017064220000007332766901457610921_);}
	.st45{fill:url(#SVGID_00000025445109065493438900000001050449792381324966_);}
	.st46{fill:url(#SVGID_00000000932148501178939500000001036968200179492271_);}
	.st47{fill:#337FFF;}
	.st48{fill:#0077B5;}
	.st49{fill:url(#SVGID_00000166668326991846049560000006611982980375085722_);}
	.st50{fill:#E6E6E6;}
	.st51{fill:none;stroke:#E6E6E6;stroke-miterlimit:10;}
</style>
<g>
	<g>
		<g>
			<path class="st10" d="M51.42,32.97c-0.03-10.41-0.04-15.61-0.04-15.61c-0.5-10.43-8.61-15.94-18.4-15.94l-14.27,0
				c-0.11,3.76,0.34,6.78,1.5,8.9c9.27,0.03,13.9,0.04,13.9,0.04c4.44,0.14,7.92,2.15,8.24,6.13c0.09,11.35,0.13,17.03,0.13,17.03
				c0.14,3.94-0.94,6.76-3.22,8.45c-1.27,0.91-3.46,1.38-6.56,1.42c-8.75,0-14.81,0-18.17,0c-1.73,0-3.13-1.41-3.13-3.14
				c0.01-8.27,0.07-13.85,0.1-16.69c0.02-1.47,0-2.32,0-2.32c-1.84-1.81-4.96-2.6-9.09-2.57c0,12.74,0.02,21.81,0.03,27.32
				c0.01,3.56,2.9,6.43,6.45,6.43c17.69-0.01,26.53-0.02,26.53-0.02c6.51-0.1,12.03-3.56,14.37-9.36
				C50.99,40.31,51.54,36.95,51.42,32.97z"/>
			<path class="st12" d="M16.67,21.04c0.58,1.43,0.71,3,0.5,4.53c-0.06,0.44-0.09,0.89-0.09,1.35c0,1.02,0.16,2.01,0.45,2.93
				c0.97,3.09,3.43,5.52,6.55,6.45c0.89,0.26,1.82,0.41,2.79,0.41c0.97,0,1.91-0.14,2.79-0.41c3.26-0.97,5.81-3.59,6.67-6.89
				c0.21-0.8,0.32-1.63,0.32-2.49c0-0.86-0.11-1.7-0.32-2.49c-0.95-3.62-3.93-6.43-7.65-7.13c-0.59-0.11-1.2-0.17-1.82-0.17
				c-0.45,0-0.9,0.03-1.33,0.09c-0.36,0.05-0.73,0.08-1.1,0.08l0,0c-0.64,0-1.21-0.14-1.65-0.26c-7.73-2.03-8.61-8.19-8.64-15.39
				c-0.02-1.17-1.02-1.63-2.21-1.63c-6.82-0.04-10.33,0-10.33,0c-1,0-1.6,0.77-1.61,1.71c0.04,6.94,0.03,7.81,0.05,10.41
				c0.01,1.07,0.69,1.96,1.95,1.95C8.38,14.07,14.48,15.58,16.67,21.04z"/>
		</g>
		<g>
			<path class="st10" d="M61.97,41V18.55h8.45c3.73,0,6.48,0.94,8.26,2.83c1.78,1.89,2.68,4.68,2.68,8.38s-0.89,6.5-2.68,8.4
				C76.9,40.05,74.14,41,70.42,41H61.97z M66.55,37.33h3.37c2.27,0,3.96-0.61,5.08-1.82c1.12-1.21,1.68-3.13,1.68-5.76
				S76.12,25.21,75,24c-1.12-1.21-2.82-1.82-5.08-1.82h-3.37V37.33z"/>
			<path class="st10" d="M110.92,41.54c-1.75,0-3.09-0.43-4.01-1.3c-0.92-0.86-1.38-2.12-1.38-3.75V27.4h-2.63v-3.37h2.63v-4.71
				h4.44v4.71h3.91v3.37h-3.91v8.42c0,0.67,0.13,1.18,0.39,1.51c0.26,0.34,0.72,0.5,1.4,0.5c0.36,0,0.73-0.06,1.13-0.17
				c0.39-0.11,0.72-0.26,0.99-0.44v3.7c-0.43,0.22-0.9,0.38-1.43,0.47C111.92,41.49,111.41,41.54,110.92,41.54z"/>
			<path class="st10" d="M146.53,41V18.55h4.61v18.72h10.23V41H146.53z"/>
			<path class="st10" d="M189.93,41.51c-0.92,0-1.83-0.06-2.73-0.19c-0.9-0.12-1.7-0.34-2.41-0.64c-0.71-0.3-1.27-0.72-1.7-1.25
				c-0.43-0.53-0.64-1.22-0.64-2.07V17.5h4.21v9.19l-0.91-1.35c0.4-0.4,0.93-0.73,1.57-0.99c0.64-0.26,1.28-0.45,1.94-0.57
				c0.65-0.12,1.2-0.19,1.65-0.19c2.54,0,4.45,0.76,5.76,2.27c1.3,1.51,1.95,3.69,1.95,6.51c0,1.77-0.24,3.25-0.71,4.43
				c-0.47,1.18-1.11,2.11-1.9,2.79c-0.8,0.68-1.72,1.17-2.76,1.46C192.2,41.36,191.1,41.51,189.93,41.51z M189.83,37.87
				c1.14,0,2.04-0.23,2.69-0.69c0.65-0.46,1.11-1.09,1.38-1.89c0.27-0.8,0.4-1.69,0.4-2.68c0-1.28-0.17-2.32-0.5-3.13
				c-0.34-0.81-0.82-1.41-1.45-1.8c-0.63-0.39-1.4-0.59-2.32-0.59c-0.52,0-1.08,0.07-1.68,0.2c-0.61,0.13-1.17,0.35-1.68,0.64v8.32
				c0,0.43,0.15,0.76,0.45,0.99c0.3,0.24,0.7,0.4,1.18,0.49C188.78,37.83,189.29,37.87,189.83,37.87z"/>
			<path class="st10" d="M207.37,41.51c-1.21,0-2.24-0.13-3.1-0.39c-0.85-0.26-1.67-0.57-2.46-0.93v-3.87
				c0.52,0.34,1.06,0.66,1.63,0.96c0.57,0.3,1.19,0.54,1.85,0.72c0.66,0.18,1.39,0.27,2.17,0.27c0.88,0,1.53-0.17,1.97-0.5
				c0.44-0.34,0.66-0.76,0.66-1.28c0-0.45-0.17-0.8-0.5-1.06c-0.34-0.26-0.77-0.48-1.31-0.66c-0.54-0.18-1.11-0.36-1.72-0.54
				c-0.56-0.13-1.13-0.31-1.7-0.54c-0.57-0.22-1.09-0.53-1.57-0.91c-0.47-0.38-0.85-0.87-1.13-1.46c-0.28-0.59-0.42-1.32-0.42-2.17
				c0-1.01,0.2-1.86,0.61-2.56c0.4-0.7,0.94-1.26,1.6-1.7c0.66-0.44,1.38-0.75,2.15-0.94c0.77-0.19,1.53-0.27,2.27-0.25
				c1.3,0.02,2.35,0.17,3.13,0.44c0.79,0.27,1.53,0.59,2.22,0.98v3.5c-0.79-0.43-1.54-0.81-2.27-1.16
				c-0.73-0.35-1.58-0.52-2.54-0.52c-0.88,0-1.55,0.15-2.04,0.45c-0.48,0.3-0.72,0.72-0.72,1.26c0,0.47,0.15,0.85,0.44,1.13
				c0.29,0.28,0.68,0.5,1.16,0.67c0.48,0.17,1,0.33,1.57,0.49c0.56,0.16,1.14,0.33,1.73,0.52c0.59,0.19,1.16,0.46,1.68,0.81
				c0.53,0.35,0.95,0.82,1.28,1.43c0.33,0.61,0.49,1.39,0.49,2.36c-0.02,1.32-0.38,2.38-1.06,3.18c-0.68,0.8-1.57,1.38-2.64,1.73
				C209.72,41.33,208.58,41.51,207.37,41.51z"/>
			<g>
				<path class="st12" d="M96.8,27.84h-9.87c-1.21,0-2.19-0.98-2.19-2.19s0.98-2.19,2.19-2.19h9.87c1.21,0,2.19,0.98,2.19,2.19
					S98.01,27.84,96.8,27.84z"/>
				<path class="st10" d="M94.61,30.04h-5.32c-2.95,0-5.49,2.26-5.63,5.21C83.49,38.39,86.01,41,89.12,41h8.77
					c1.21,0,2.19-0.98,2.19-2.19v-3.29C100.09,32.49,97.63,30.04,94.61,30.04z M95.7,36.62h-6.58c-0.6,0-1.1-0.49-1.1-1.1
					c0-0.6,0.49-1.1,1.1-1.1h5.48c0.6,0,1.1,0.49,1.1,1.1C95.7,36.12,95.7,36.62,95.7,36.62z"/>
			</g>
			<g>
				<path class="st12" d="M129.35,27.84h-9.87c-1.21,0-2.19-0.98-2.19-2.19s0.98-2.19,2.19-2.19h9.87c1.21,0,2.19,0.98,2.19,2.19
					S130.56,27.84,129.35,27.84z"/>
				<path class="st10" d="M127.16,30.04h-5.32c-2.95,0-5.49,2.26-5.63,5.21c-0.16,3.15,2.36,5.76,5.48,5.76h8.77
					c1.21,0,2.19-0.98,2.19-2.19v-3.29C132.64,32.49,130.19,30.04,127.16,30.04z M128.26,36.62h-6.58c-0.6,0-1.1-0.49-1.1-1.1
					c0-0.6,0.49-1.1,1.1-1.1h5.48c0.6,0,1.1,0.49,1.1,1.1C128.26,36.12,128.26,36.62,128.26,36.62z"/>
			</g>
			<g>
				<path class="st12" d="M176.58,27.84h-9.87c-1.21,0-2.19-0.98-2.19-2.19s0.98-2.19,2.19-2.19h9.87c1.21,0,2.19,0.98,2.19,2.19
					S177.79,27.84,176.58,27.84z"/>
				<path class="st10" d="M174.39,30.04h-5.32c-2.95,0-5.49,2.26-5.63,5.21c-0.16,3.15,2.36,5.76,5.48,5.76h8.77
					c1.21,0,2.19-0.98,2.19-2.19v-3.29C179.87,32.49,177.41,30.04,174.39,30.04z M175.48,36.62h-6.58c-0.6,0-1.1-0.49-1.1-1.1
					c0-0.6,0.49-1.1,1.1-1.1h5.48c0.6,0,1.1,0.49,1.1,1.1C175.48,36.12,175.48,36.62,175.48,36.62z"/>
			</g>
		</g>
	</g>
</g>
</svg>
